<svg xmlns="http://www.w3.org/2000/svg" xmlns:xlink="http://www.w3.org/1999/xlink" version="1.1" width="1000" height="1000" viewBox="0 0 1000 1000" xml:space="preserve">
<desc>Created with Fabric.js 3.5.0</desc>
<defs>
</defs>
<rect x="0" y="0" width="100%" height="100%" fill="rgba(255,255,255,0)"/>
<g transform="matrix(8.5454 0 0 4.9342 497.5012 497.4992)" id="178005">
<path style="stroke: none; stroke-width: 0; stroke-dasharray: none; stroke-linecap: butt; stroke-dashoffset: 0; stroke-linejoin: miter; stroke-miterlimit: 4; is-custom-font: none; font-file-url: none; fill: rgb(29,185,84); fill-rule: nonzero; opacity: 1;" vector-effect="non-scaling-stroke" transform=" translate(-46.5001, -78.5)" d="M 2.6167 78.5 C 2.6167 57.2341 7.7391 38.064 15.8764 24.2946 C 24.0482 10.4665 34.9664 2.5 46.5001 2.5 C 58.0338 2.5 68.952 10.4665 77.1238 24.2946 C 85.2611 38.064 90.3835 57.2341 90.3835 78.5 C 90.3835 99.7659 85.2611 118.936 77.1238 132.705 C 68.952 146.533 58.0338 154.5 46.5001 154.5 C 34.9664 154.5 24.0482 146.533 15.8764 132.705 C 7.7391 118.936 2.6167 99.7659 2.6167 78.5 Z" stroke-linecap="round"/>
</g>
<g transform="matrix(9.0909 0 0 9.0909 499.9997 499.9997)" id="338399">
<path style="stroke: none; stroke-width: 1; stroke-dasharray: none; stroke-linecap: butt; stroke-dashoffset: 0; stroke-linejoin: miter; stroke-miterlimit: 4; is-custom-font: none; font-file-url: none; fill: rgb(255,255,255); fill-rule: nonzero; opacity: 1;" vector-effect="non-scaling-stroke" transform=" translate(-27.5, -27.5)" d="M 49 0 c -3.309 0 -6 2.691 -6 6 c 0 1.035 0.263 2.009 0.726 2.86 l -9.829 9.829 C 32.542 17.634 30.846 17 29 17 s -3.542 0.634 -4.898 1.688 l -7.669 -7.669 C 16.785 10.424 17 9.74 17 9 c 0 -2.206 -1.794 -4 -4 -4 S 9 6.794 9 9 s 1.794 4 4 4 c 0.74 0 1.424 -0.215 2.019 -0.567 l 7.669 7.669 C 21.634 21.458 21 23.154 21 25 s 0.634 3.542 1.688 4.897 L 10.024 42.562 C 8.958 41.595 7.549 41 6 41 c -3.309 0 -6 2.691 -6 6 s 2.691 6 6 6 s 6 -2.691 6 -6 c 0 -1.035 -0.263 -2.009 -0.726 -2.86 l 12.829 -12.829 c 1.106 0.86 2.44 1.436 3.898 1.619 v 10.16 c -2.833 0.478 -5 2.942 -5 5.91 c 0 3.309 2.691 6 6 6 s 6 -2.691 6 -6 c 0 -2.967 -2.167 -5.431 -5 -5.91 v -10.16 c 1.458 -0.183 2.792 -0.759 3.898 -1.619 l 7.669 7.669 C 41.215 39.576 41 40.26 41 41 c 0 2.206 1.794 4 4 4 s 4 -1.794 4 -4 s -1.794 -4 -4 -4 c -0.74 0 -1.424 0.215 -2.019 0.567 l -7.669 -7.669 C 36.366 28.542 37 26.846 37 25 s -0.634 -3.542 -1.688 -4.897 l 9.665 -9.665 C 46.042 11.405 47.451 12 49 12 c 3.309 0 6 -2.691 6 -6 S 52.309 0 49 0 z" stroke-linecap="round"/>
</g>
</svg>